<?xml version="1.0" encoding="UTF-8"?>
<svg xmlns="http://www.w3.org/2000/svg" xmlns:xlink="http://www.w3.org/1999/xlink" width="329pt" height="110pt" viewBox="0 0 329 110" version="1.1">
<g id="surface1">
<path style="fill-rule:nonzero;fill:rgb(69.803922%,85.098039%,100%);fill-opacity:1;stroke-width:1;stroke-linecap:round;stroke-linejoin:round;stroke:rgb(0%,0%,0%);stroke-opacity:1;stroke-miterlimit:10;" d="M 124.015625 139.234375 C 128.996875 144.215625 128.996875 152.284375 124.015625 157.265625 C 119.034375 162.246875 110.965625 162.246875 105.984375 157.265625 C 101.003125 152.284375 101.003125 144.215625 105.984375 139.234375 C 110.965625 134.253125 119.034375 134.253125 124.015625 139.234375 " transform="matrix(1.25,0,0,1.25,-30,-92.5)"/>
<path style=" stroke:none;fill-rule:nonzero;fill:rgb(0%,0%,0%);fill-opacity:1;" d="M 108.484375 95.792969 L 111.023438 92.824219 L 109.578125 89.953125 L 110.671875 89.953125 L 111.160156 90.988281 C 111.339844 91.378906 111.503906 91.761719 111.648438 92.121094 L 113.347656 89.953125 L 114.558594 89.953125 L 112.097656 92.902344 L 113.582031 95.792969 L 112.46875 95.792969 L 111.902344 94.601562 C 111.769531 94.359375 111.628906 94.046875 111.472656 93.664062 L 109.734375 95.792969 Z M 108.484375 95.792969 "/>
<path style=" stroke:none;fill-rule:nonzero;fill:rgb(0%,0%,0%);fill-opacity:1;" d="M 116.238281 98.292969 L 117.234375 93.566406 C 116.804688 93.910156 116.199219 94.171875 115.417969 94.367188 L 115.574219 93.664062 C 115.949219 93.507812 116.328125 93.308594 116.707031 93.058594 C 117.082031 92.816406 117.363281 92.601562 117.546875 92.414062 C 117.664062 92.296875 117.773438 92.160156 117.878906 92.003906 L 118.328125 92.003906 L 117.019531 98.292969 Z M 116.238281 98.292969 "/>
<path style="fill-rule:nonzero;fill:rgb(69.803922%,85.098039%,100%);fill-opacity:1;stroke-width:1;stroke-linecap:round;stroke-linejoin:round;stroke:rgb(0%,0%,0%);stroke-opacity:1;stroke-miterlimit:10;" d="M 176.890625 139.234375 C 181.871875 144.215625 181.871875 152.284375 176.890625 157.265625 C 171.909375 162.246875 163.840625 162.246875 158.859375 157.265625 C 153.878125 152.284375 153.878125 144.215625 158.859375 139.234375 C 163.840625 134.253125 171.909375 134.253125 176.890625 139.234375 " transform="matrix(1.25,0,0,1.25,-30,-92.5)"/>
<path style=" stroke:none;fill-rule:nonzero;fill:rgb(0%,0%,0%);fill-opacity:1;" d="M 174.578125 95.792969 L 177.117188 92.824219 L 175.671875 89.953125 L 176.765625 89.953125 L 177.253906 90.988281 C 177.433594 91.378906 177.597656 91.761719 177.742188 92.121094 L 179.441406 89.953125 L 180.652344 89.953125 L 178.191406 92.902344 L 179.675781 95.792969 L 178.5625 95.792969 L 177.996094 94.601562 C 177.863281 94.359375 177.722656 94.046875 177.566406 93.664062 L 175.828125 95.792969 Z M 174.578125 95.792969 "/>
<path style=" stroke:none;fill-rule:nonzero;fill:rgb(0%,0%,0%);fill-opacity:1;" d="M 180.730469 98.292969 C 180.808594 97.917969 180.917969 97.605469 181.0625 97.355469 C 181.203125 97.113281 181.394531 96.878906 181.628906 96.652344 C 181.863281 96.417969 182.3125 96.039062 182.976562 95.5 C 183.378906 95.179688 183.660156 94.933594 183.816406 94.777344 C 184.023438 94.558594 184.171875 94.34375 184.265625 94.132812 C 184.328125 93.992188 184.363281 93.835938 184.363281 93.664062 C 184.363281 93.382812 184.257812 93.136719 184.050781 92.941406 C 183.855469 92.738281 183.605469 92.628906 183.308594 92.628906 C 183.019531 92.628906 182.765625 92.738281 182.546875 92.941406 C 182.324219 93.136719 182.167969 93.464844 182.078125 93.917969 L 181.316406 93.800781 C 181.394531 93.246094 181.609375 92.804688 181.960938 92.492188 C 182.324219 92.171875 182.773438 92.003906 183.308594 92.003906 C 183.660156 92.003906 183.976562 92.082031 184.265625 92.238281 C 184.550781 92.386719 184.765625 92.589844 184.910156 92.863281 C 185.066406 93.128906 185.144531 93.402344 185.144531 93.683594 C 185.144531 94.105469 184.992188 94.5 184.695312 94.875 C 184.511719 95.125 183.976562 95.597656 183.09375 96.300781 C 182.703125 96.605469 182.414062 96.847656 182.234375 97.042969 C 182.050781 97.238281 181.914062 97.425781 181.824219 97.589844 L 184.617188 97.589844 L 184.460938 98.292969 Z M 180.730469 98.292969 "/>
<path style=" stroke:none;fill-rule:nonzero;fill:rgb(0%,0%,0%);fill-opacity:1;" d="M 12.289062 95.441406 L 12.289062 87.394531 L 13.34375 87.394531 L 13.34375 95.441406 Z M 12.289062 95.441406 "/>
<path style=" stroke:none;fill-rule:nonzero;fill:rgb(0%,0%,0%);fill-opacity:1;" d="M 15.101562 95.441406 L 15.101562 89.601562 L 16 89.601562 L 16 90.441406 C 16.414062 89.804688 17.035156 89.484375 17.855469 89.484375 C 18.207031 89.484375 18.523438 89.550781 18.8125 89.679688 C 19.109375 89.796875 19.332031 89.960938 19.476562 90.167969 C 19.617188 90.363281 19.722656 90.605469 19.789062 90.890625 C 19.828125 91.074219 19.847656 91.394531 19.847656 91.847656 L 19.847656 95.441406 L 18.851562 95.441406 L 18.851562 91.886719 C 18.851562 91.484375 18.8125 91.183594 18.734375 90.988281 C 18.65625 90.792969 18.519531 90.636719 18.324219 90.519531 C 18.128906 90.390625 17.898438 90.324219 17.640625 90.324219 C 17.222656 90.324219 16.859375 90.460938 16.546875 90.734375 C 16.246094 90.996094 16.097656 91.503906 16.097656 92.257812 L 16.097656 95.441406 Z M 15.101562 95.441406 "/>
<path style=" stroke:none;fill-rule:nonzero;fill:rgb(0%,0%,0%);fill-opacity:1;" d="M 21.359375 97.667969 L 21.359375 89.601562 L 22.257812 89.601562 L 22.257812 90.363281 C 22.460938 90.066406 22.695312 89.84375 22.960938 89.699219 C 23.234375 89.558594 23.566406 89.484375 23.957031 89.484375 C 24.449219 89.484375 24.882812 89.617188 25.265625 89.875 C 25.640625 90.125 25.929688 90.480469 26.125 90.949219 C 26.320312 91.417969 26.417969 91.925781 26.417969 92.472656 C 26.417969 93.074219 26.304688 93.613281 26.085938 94.09375 C 25.875 94.578125 25.566406 94.949219 25.167969 95.207031 C 24.761719 95.449219 24.332031 95.578125 23.878906 95.578125 C 23.550781 95.578125 23.257812 95.503906 23 95.363281 C 22.734375 95.222656 22.519531 95.046875 22.355469 94.835938 L 22.355469 97.667969 Z M 22.257812 92.550781 C 22.257812 93.308594 22.402344 93.867188 22.707031 94.230469 C 23.019531 94.582031 23.390625 94.757812 23.820312 94.757812 C 24.25 94.757812 24.621094 94.578125 24.933594 94.210938 C 25.253906 93.835938 25.421875 93.253906 25.421875 92.472656 C 25.421875 91.730469 25.265625 91.179688 24.953125 90.8125 C 24.648438 90.4375 24.289062 90.246094 23.859375 90.246094 C 23.4375 90.246094 23.066406 90.449219 22.746094 90.851562 C 22.417969 91.242188 22.257812 91.808594 22.257812 92.550781 Z M 22.257812 92.550781 "/>
<path style=" stroke:none;fill-rule:nonzero;fill:rgb(0%,0%,0%);fill-opacity:1;" d="M 31.445312 95.441406 L 31.445312 94.582031 C 30.984375 95.246094 30.371094 95.578125 29.589844 95.578125 C 29.246094 95.578125 28.929688 95.507812 28.632812 95.382812 C 28.328125 95.242188 28.105469 95.070312 27.949219 94.875 C 27.800781 94.679688 27.703125 94.441406 27.65625 94.152344 C 27.617188 93.957031 27.597656 93.644531 27.597656 93.214844 L 27.597656 89.601562 L 28.574219 89.601562 L 28.574219 92.84375 C 28.574219 93.367188 28.597656 93.710938 28.652344 93.878906 C 28.699219 94.140625 28.828125 94.347656 29.023438 94.503906 C 29.226562 94.648438 29.480469 94.71875 29.785156 94.71875 C 30.082031 94.71875 30.359375 94.648438 30.625 94.503906 C 30.882812 94.347656 31.0625 94.140625 31.171875 93.878906 C 31.273438 93.621094 31.328125 93.234375 31.328125 92.726562 L 31.328125 89.601562 L 32.324219 89.601562 L 32.324219 95.441406 Z M 31.445312 95.441406 "/>
<path style=" stroke:none;fill-rule:nonzero;fill:rgb(0%,0%,0%);fill-opacity:1;" d="M 36.042969 94.5625 L 36.179688 95.421875 C 35.890625 95.484375 35.640625 95.519531 35.4375 95.519531 C 35.070312 95.519531 34.792969 95.460938 34.597656 95.34375 C 34.402344 95.226562 34.253906 95.078125 34.167969 94.894531 C 34.089844 94.714844 34.050781 94.328125 34.050781 93.742188 L 34.050781 90.382812 L 33.328125 90.382812 L 33.328125 89.601562 L 34.050781 89.601562 L 34.050781 88.15625 L 35.046875 87.570312 L 35.046875 89.601562 L 36.042969 89.601562 L 36.042969 90.382812 L 35.046875 90.382812 L 35.046875 93.78125 C 35.046875 94.070312 35.054688 94.25 35.085938 94.328125 C 35.125 94.40625 35.183594 94.472656 35.261719 94.523438 C 35.339844 94.578125 35.445312 94.601562 35.59375 94.601562 C 35.710938 94.601562 35.855469 94.589844 36.042969 94.5625 Z M 36.042969 94.5625 "/>
<path style=" stroke:none;fill-rule:nonzero;fill:rgb(0%,0%,0%);fill-opacity:1;" d="M 40.105469 95.441406 L 40.105469 87.394531 L 41.082031 87.394531 L 41.082031 95.441406 Z M 40.105469 95.441406 "/>
<path style=" stroke:none;fill-rule:nonzero;fill:rgb(0%,0%,0%);fill-opacity:1;" d="M 46.433594 94.71875 C 46.066406 95.03125 45.714844 95.253906 45.378906 95.382812 C 45.035156 95.507812 44.675781 95.578125 44.285156 95.578125 C 43.644531 95.578125 43.152344 95.421875 42.800781 95.109375 C 42.457031 94.796875 42.292969 94.394531 42.292969 93.898438 C 42.292969 93.613281 42.355469 93.351562 42.488281 93.117188 C 42.613281 92.882812 42.785156 92.695312 42.996094 92.550781 C 43.199219 92.410156 43.433594 92.296875 43.699219 92.21875 C 43.894531 92.179688 44.1875 92.136719 44.578125 92.082031 C 45.382812 91.992188 45.972656 91.875 46.355469 91.730469 C 46.355469 91.601562 46.355469 91.515625 46.355469 91.476562 C 46.355469 91.074219 46.261719 90.792969 46.082031 90.636719 C 45.816406 90.402344 45.441406 90.285156 44.949219 90.285156 C 44.480469 90.285156 44.132812 90.371094 43.914062 90.539062 C 43.6875 90.695312 43.527344 90.984375 43.425781 91.398438 L 42.46875 91.28125 C 42.546875 90.867188 42.683594 90.535156 42.878906 90.285156 C 43.082031 90.027344 43.375 89.832031 43.757812 89.699219 C 44.148438 89.558594 44.585938 89.484375 45.085938 89.484375 C 45.59375 89.484375 45.992188 89.542969 46.296875 89.660156 C 46.609375 89.777344 46.832031 89.929688 46.980469 90.109375 C 47.136719 90.28125 47.238281 90.5 47.292969 90.773438 C 47.332031 90.945312 47.351562 91.242188 47.351562 91.671875 L 47.351562 93 C 47.351562 93.914062 47.371094 94.492188 47.410156 94.738281 C 47.449219 94.988281 47.53125 95.222656 47.664062 95.441406 L 46.628906 95.441406 C 46.519531 95.234375 46.457031 94.992188 46.433594 94.71875 Z M 46.355469 92.511719 C 45.988281 92.65625 45.445312 92.78125 44.734375 92.882812 C 44.328125 92.949219 44.039062 93.019531 43.875 93.097656 C 43.703125 93.164062 43.570312 93.269531 43.484375 93.410156 C 43.390625 93.554688 43.347656 93.710938 43.347656 93.878906 C 43.347656 94.140625 43.445312 94.363281 43.640625 94.542969 C 43.835938 94.714844 44.128906 94.796875 44.519531 94.796875 C 44.894531 94.796875 45.230469 94.714844 45.535156 94.542969 C 45.832031 94.375 46.050781 94.148438 46.199219 93.859375 C 46.300781 93.640625 46.355469 93.3125 46.355469 92.882812 Z M 46.355469 92.511719 "/>
<path style=" stroke:none;fill-rule:nonzero;fill:rgb(0%,0%,0%);fill-opacity:1;" d="M 48.84375 97.6875 L 48.726562 96.769531 C 48.945312 96.816406 49.136719 96.847656 49.292969 96.847656 C 49.511719 96.847656 49.6875 96.808594 49.820312 96.730469 C 49.945312 96.660156 50.058594 96.5625 50.152344 96.4375 C 50.199219 96.328125 50.296875 96.085938 50.445312 95.695312 C 50.46875 95.640625 50.503906 95.5625 50.542969 95.460938 L 48.316406 89.601562 L 49.390625 89.601562 L 50.601562 92.980469 C 50.757812 93.410156 50.898438 93.859375 51.03125 94.328125 C 51.132812 93.886719 51.265625 93.445312 51.421875 93 L 52.671875 89.601562 L 53.667969 89.601562 L 51.441406 95.539062 C 51.207031 96.171875 51.019531 96.617188 50.894531 96.867188 C 50.707031 97.1875 50.507812 97.421875 50.289062 97.570312 C 50.0625 97.726562 49.789062 97.804688 49.46875 97.804688 C 49.28125 97.804688 49.078125 97.765625 48.84375 97.6875 Z M 48.84375 97.6875 "/>
<path style=" stroke:none;fill-rule:nonzero;fill:rgb(0%,0%,0%);fill-opacity:1;" d="M 58.492188 93.566406 L 59.527344 93.683594 C 59.355469 94.285156 59.046875 94.753906 58.609375 95.089844 C 58.179688 95.417969 57.621094 95.578125 56.949219 95.578125 C 56.097656 95.578125 55.425781 95.320312 54.917969 94.796875 C 54.417969 94.265625 54.175781 93.523438 54.175781 92.570312 C 54.175781 91.59375 54.429688 90.839844 54.9375 90.304688 C 55.445312 89.757812 56.097656 89.484375 56.910156 89.484375 C 57.691406 89.484375 58.320312 89.753906 58.804688 90.285156 C 59.296875 90.808594 59.546875 91.550781 59.546875 92.511719 C 59.546875 92.578125 59.546875 92.667969 59.546875 92.785156 L 55.191406 92.785156 C 55.230469 93.425781 55.410156 93.914062 55.738281 94.25 C 56.058594 94.589844 56.46875 94.757812 56.96875 94.757812 C 57.328125 94.757812 57.636719 94.667969 57.886719 94.484375 C 58.144531 94.289062 58.34375 93.984375 58.492188 93.566406 Z M 55.25 91.964844 L 58.511719 91.964844 C 58.472656 91.472656 58.34375 91.101562 58.140625 90.851562 C 57.828125 90.476562 57.417969 90.285156 56.910156 90.285156 C 56.449219 90.285156 56.070312 90.441406 55.757812 90.753906 C 55.453125 91.054688 55.289062 91.457031 55.25 91.964844 Z M 55.25 91.964844 "/>
<path style=" stroke:none;fill-rule:nonzero;fill:rgb(0%,0%,0%);fill-opacity:1;" d="M 60.742188 95.441406 L 60.742188 89.601562 L 61.640625 89.601562 L 61.640625 90.5 C 61.863281 90.085938 62.070312 89.8125 62.265625 89.679688 C 62.460938 89.550781 62.675781 89.484375 62.910156 89.484375 C 63.234375 89.484375 63.574219 89.589844 63.925781 89.796875 L 63.574219 90.714844 C 63.339844 90.574219 63.097656 90.5 62.851562 90.5 C 62.644531 90.5 62.449219 90.566406 62.265625 90.695312 C 62.097656 90.828125 61.972656 91.007812 61.894531 91.242188 C 61.789062 91.59375 61.738281 91.980469 61.738281 92.394531 L 61.738281 95.441406 Z M 60.742188 95.441406 "/>
<path style=" stroke:none;fill-rule:nonzero;fill:rgb(0%,0%,0%);fill-opacity:1;" d="M 7.40625 16.203125 C 7.40625 14.875 7.761719 13.835938 8.480469 13.078125 C 9.191406 12.3125 10.121094 11.925781 11.253906 11.925781 C 11.996094 11.925781 12.664062 12.109375 13.265625 12.472656 C 13.859375 12.824219 14.320312 13.320312 14.632812 13.957031 C 14.945312 14.597656 15.101562 15.3125 15.101562 16.105469 C 15.101562 16.925781 14.933594 17.664062 14.613281 18.3125 C 14.285156 18.953125 13.816406 19.441406 13.207031 19.777344 C 12.605469 20.105469 11.957031 20.265625 11.253906 20.265625 C 10.496094 20.265625 9.816406 20.085938 9.222656 19.71875 C 8.621094 19.355469 8.167969 18.855469 7.855469 18.214844 C 7.550781 17.578125 7.40625 16.90625 7.40625 16.203125 Z M 8.5 16.222656 C 8.5 17.199219 8.757812 17.96875 9.28125 18.527344 C 9.796875 19.074219 10.457031 19.347656 11.253906 19.347656 C 12.042969 19.347656 12.703125 19.070312 13.226562 18.507812 C 13.742188 17.949219 14.007812 17.148438 14.007812 16.105469 C 14.007812 15.457031 13.894531 14.890625 13.675781 14.40625 C 13.449219 13.914062 13.128906 13.527344 12.699219 13.253906 C 12.269531 12.980469 11.789062 12.84375 11.273438 12.84375 C 10.515625 12.84375 9.867188 13.105469 9.320312 13.625 C 8.773438 14.148438 8.5 15.011719 8.5 16.222656 Z M 8.5 16.222656 "/>
<path style=" stroke:none;fill-rule:nonzero;fill:rgb(0%,0%,0%);fill-opacity:1;" d="M 20.179688 20.128906 L 20.179688 19.269531 C 19.71875 19.933594 19.105469 20.265625 18.324219 20.265625 C 17.984375 20.265625 17.664062 20.195312 17.367188 20.070312 C 17.0625 19.929688 16.839844 19.757812 16.683594 19.5625 C 16.539062 19.367188 16.4375 19.128906 16.390625 18.839844 C 16.351562 18.644531 16.332031 18.332031 16.332031 17.902344 L 16.332031 14.289062 L 17.308594 14.289062 L 17.308594 17.53125 C 17.308594 18.054688 17.332031 18.398438 17.386719 18.566406 C 17.4375 18.828125 17.5625 19.035156 17.757812 19.191406 C 17.960938 19.335938 18.21875 19.40625 18.519531 19.40625 C 18.816406 19.40625 19.09375 19.335938 19.359375 19.191406 C 19.617188 19.035156 19.796875 18.828125 19.90625 18.566406 C 20.007812 18.308594 20.0625 17.921875 20.0625 17.414062 L 20.0625 14.289062 L 21.058594 14.289062 L 21.058594 20.128906 Z M 20.179688 20.128906 "/>
<path style=" stroke:none;fill-rule:nonzero;fill:rgb(0%,0%,0%);fill-opacity:1;" d="M 24.777344 19.25 L 24.914062 20.109375 C 24.625 20.171875 24.375 20.207031 24.171875 20.207031 C 23.804688 20.207031 23.527344 20.148438 23.332031 20.03125 C 23.136719 19.914062 22.988281 19.765625 22.902344 19.582031 C 22.824219 19.402344 22.785156 19.015625 22.785156 18.429688 L 22.785156 15.070312 L 22.0625 15.070312 L 22.0625 14.289062 L 22.785156 14.289062 L 22.785156 12.84375 L 23.78125 12.257812 L 23.78125 14.289062 L 24.777344 14.289062 L 24.777344 15.070312 L 23.78125 15.070312 L 23.78125 18.46875 C 23.78125 18.757812 23.789062 18.9375 23.820312 19.015625 C 23.859375 19.09375 23.917969 19.160156 23.996094 19.210938 C 24.074219 19.265625 24.179688 19.289062 24.328125 19.289062 C 24.445312 19.289062 24.589844 19.277344 24.777344 19.25 Z M 24.777344 19.25 "/>
<path style=" stroke:none;fill-rule:nonzero;fill:rgb(0%,0%,0%);fill-opacity:1;" d="M 25.734375 22.355469 L 25.734375 14.289062 L 26.632812 14.289062 L 26.632812 15.050781 C 26.835938 14.753906 27.070312 14.53125 27.335938 14.386719 C 27.609375 14.246094 27.941406 14.171875 28.332031 14.171875 C 28.824219 14.171875 29.257812 14.304688 29.640625 14.5625 C 30.015625 14.8125 30.304688 15.167969 30.5 15.636719 C 30.695312 16.105469 30.792969 16.613281 30.792969 17.160156 C 30.792969 17.761719 30.679688 18.300781 30.460938 18.78125 C 30.25 19.265625 29.941406 19.636719 29.542969 19.894531 C 29.136719 20.136719 28.707031 20.265625 28.253906 20.265625 C 27.925781 20.265625 27.632812 20.191406 27.375 20.050781 C 27.109375 19.910156 26.894531 19.734375 26.730469 19.523438 L 26.730469 22.355469 Z M 26.632812 17.238281 C 26.632812 17.996094 26.777344 18.554688 27.082031 18.917969 C 27.394531 19.269531 27.765625 19.445312 28.195312 19.445312 C 28.625 19.445312 28.996094 19.265625 29.308594 18.898438 C 29.628906 18.523438 29.796875 17.941406 29.796875 17.160156 C 29.796875 16.417969 29.640625 15.867188 29.328125 15.5 C 29.023438 15.125 28.664062 14.933594 28.234375 14.933594 C 27.8125 14.933594 27.441406 15.136719 27.121094 15.539062 C 26.792969 15.929688 26.632812 16.496094 26.632812 17.238281 Z M 26.632812 17.238281 "/>
<path style=" stroke:none;fill-rule:nonzero;fill:rgb(0%,0%,0%);fill-opacity:1;" d="M 35.820312 20.128906 L 35.820312 19.269531 C 35.359375 19.933594 34.746094 20.265625 33.964844 20.265625 C 33.621094 20.265625 33.304688 20.195312 33.007812 20.070312 C 32.703125 19.929688 32.480469 19.757812 32.324219 19.5625 C 32.175781 19.367188 32.078125 19.128906 32.03125 18.839844 C 31.992188 18.644531 31.972656 18.332031 31.972656 17.902344 L 31.972656 14.289062 L 32.949219 14.289062 L 32.949219 17.53125 C 32.949219 18.054688 32.972656 18.398438 33.027344 18.566406 C 33.074219 18.828125 33.203125 19.035156 33.398438 19.191406 C 33.601562 19.335938 33.855469 19.40625 34.160156 19.40625 C 34.457031 19.40625 34.734375 19.335938 35 19.191406 C 35.257812 19.035156 35.4375 18.828125 35.546875 18.566406 C 35.648438 18.308594 35.703125 17.921875 35.703125 17.414062 L 35.703125 14.289062 L 36.699219 14.289062 L 36.699219 20.128906 Z M 35.820312 20.128906 "/>
<path style=" stroke:none;fill-rule:nonzero;fill:rgb(0%,0%,0%);fill-opacity:1;" d="M 40.417969 19.25 L 40.554688 20.109375 C 40.265625 20.171875 40.015625 20.207031 39.8125 20.207031 C 39.445312 20.207031 39.167969 20.148438 38.972656 20.03125 C 38.777344 19.914062 38.628906 19.765625 38.542969 19.582031 C 38.464844 19.402344 38.425781 19.015625 38.425781 18.429688 L 38.425781 15.070312 L 37.703125 15.070312 L 37.703125 14.289062 L 38.425781 14.289062 L 38.425781 12.84375 L 39.421875 12.257812 L 39.421875 14.289062 L 40.417969 14.289062 L 40.417969 15.070312 L 39.421875 15.070312 L 39.421875 18.46875 C 39.421875 18.757812 39.429688 18.9375 39.460938 19.015625 C 39.5 19.09375 39.558594 19.160156 39.636719 19.210938 C 39.714844 19.265625 39.820312 19.289062 39.96875 19.289062 C 40.085938 19.289062 40.230469 19.277344 40.417969 19.25 Z M 40.417969 19.25 "/>
<path style=" stroke:none;fill-rule:nonzero;fill:rgb(0%,0%,0%);fill-opacity:1;" d="M 44.480469 20.128906 L 44.480469 12.082031 L 45.457031 12.082031 L 45.457031 20.128906 Z M 44.480469 20.128906 "/>
<path style=" stroke:none;fill-rule:nonzero;fill:rgb(0%,0%,0%);fill-opacity:1;" d="M 50.808594 19.40625 C 50.441406 19.71875 50.089844 19.941406 49.753906 20.070312 C 49.410156 20.195312 49.050781 20.265625 48.660156 20.265625 C 48.019531 20.265625 47.527344 20.109375 47.175781 19.796875 C 46.832031 19.484375 46.667969 19.082031 46.667969 18.585938 C 46.667969 18.300781 46.730469 18.039062 46.863281 17.804688 C 46.988281 17.570312 47.160156 17.382812 47.371094 17.238281 C 47.574219 17.097656 47.808594 16.984375 48.074219 16.90625 C 48.269531 16.867188 48.5625 16.824219 48.953125 16.769531 C 49.757812 16.679688 50.347656 16.5625 50.730469 16.417969 C 50.730469 16.289062 50.730469 16.203125 50.730469 16.164062 C 50.730469 15.761719 50.636719 15.480469 50.457031 15.324219 C 50.191406 15.089844 49.816406 14.972656 49.324219 14.972656 C 48.855469 14.972656 48.507812 15.058594 48.289062 15.226562 C 48.0625 15.382812 47.902344 15.671875 47.800781 16.085938 L 46.84375 15.96875 C 46.921875 15.554688 47.058594 15.222656 47.253906 14.972656 C 47.457031 14.714844 47.75 14.519531 48.132812 14.386719 C 48.523438 14.246094 48.960938 14.171875 49.460938 14.171875 C 49.96875 14.171875 50.367188 14.230469 50.671875 14.347656 C 50.984375 14.464844 51.207031 14.617188 51.355469 14.796875 C 51.511719 14.96875 51.613281 15.1875 51.667969 15.460938 C 51.707031 15.632812 51.726562 15.929688 51.726562 16.359375 L 51.726562 17.6875 C 51.726562 18.601562 51.746094 19.179688 51.785156 19.425781 C 51.824219 19.675781 51.90625 19.910156 52.039062 20.128906 L 51.003906 20.128906 C 50.894531 19.921875 50.832031 19.679688 50.808594 19.40625 Z M 50.730469 17.199219 C 50.363281 17.34375 49.820312 17.46875 49.109375 17.570312 C 48.703125 17.636719 48.414062 17.707031 48.25 17.785156 C 48.078125 17.851562 47.945312 17.957031 47.859375 18.097656 C 47.765625 18.242188 47.722656 18.398438 47.722656 18.566406 C 47.722656 18.828125 47.820312 19.050781 48.015625 19.230469 C 48.210938 19.402344 48.503906 19.484375 48.894531 19.484375 C 49.269531 19.484375 49.605469 19.402344 49.910156 19.230469 C 50.207031 19.0625 50.425781 18.835938 50.574219 18.546875 C 50.675781 18.328125 50.730469 18 50.730469 17.570312 Z M 50.730469 17.199219 "/>
<path style=" stroke:none;fill-rule:nonzero;fill:rgb(0%,0%,0%);fill-opacity:1;" d="M 53.21875 22.375 L 53.101562 21.457031 C 53.320312 21.503906 53.511719 21.535156 53.667969 21.535156 C 53.886719 21.535156 54.0625 21.496094 54.195312 21.417969 C 54.320312 21.347656 54.433594 21.25 54.527344 21.125 C 54.574219 21.015625 54.671875 20.773438 54.820312 20.382812 C 54.84375 20.328125 54.878906 20.25 54.917969 20.148438 L 52.691406 14.289062 L 53.765625 14.289062 L 54.976562 17.667969 C 55.132812 18.097656 55.273438 18.546875 55.40625 19.015625 C 55.507812 18.574219 55.640625 18.132812 55.796875 17.6875 L 57.046875 14.289062 L 58.042969 14.289062 L 55.816406 20.226562 C 55.582031 20.859375 55.394531 21.304688 55.269531 21.554688 C 55.082031 21.875 54.882812 22.109375 54.664062 22.257812 C 54.4375 22.414062 54.164062 22.492188 53.84375 22.492188 C 53.65625 22.492188 53.453125 22.453125 53.21875 22.375 Z M 53.21875 22.375 "/>
<path style=" stroke:none;fill-rule:nonzero;fill:rgb(0%,0%,0%);fill-opacity:1;" d="M 62.867188 18.253906 L 63.902344 18.371094 C 63.730469 18.972656 63.421875 19.441406 62.984375 19.777344 C 62.554688 20.105469 61.996094 20.265625 61.324219 20.265625 C 60.472656 20.265625 59.800781 20.007812 59.292969 19.484375 C 58.792969 18.953125 58.550781 18.210938 58.550781 17.257812 C 58.550781 16.28125 58.804688 15.527344 59.3125 14.992188 C 59.820312 14.445312 60.472656 14.171875 61.285156 14.171875 C 62.066406 14.171875 62.695312 14.441406 63.179688 14.972656 C 63.671875 15.496094 63.921875 16.238281 63.921875 17.199219 C 63.921875 17.265625 63.921875 17.355469 63.921875 17.472656 L 59.566406 17.472656 C 59.605469 18.113281 59.785156 18.601562 60.113281 18.9375 C 60.433594 19.277344 60.84375 19.445312 61.34375 19.445312 C 61.703125 19.445312 62.011719 19.355469 62.261719 19.171875 C 62.519531 18.976562 62.71875 18.671875 62.867188 18.253906 Z M 59.625 16.652344 L 62.886719 16.652344 C 62.847656 16.160156 62.71875 15.789062 62.515625 15.539062 C 62.203125 15.164062 61.792969 14.972656 61.285156 14.972656 C 60.824219 14.972656 60.445312 15.128906 60.132812 15.441406 C 59.828125 15.742188 59.664062 16.144531 59.625 16.652344 Z M 59.625 16.652344 "/>
<path style=" stroke:none;fill-rule:nonzero;fill:rgb(0%,0%,0%);fill-opacity:1;" d="M 65.117188 20.128906 L 65.117188 14.289062 L 66.015625 14.289062 L 66.015625 15.1875 C 66.238281 14.773438 66.445312 14.5 66.640625 14.367188 C 66.835938 14.238281 67.050781 14.171875 67.285156 14.171875 C 67.609375 14.171875 67.949219 14.277344 68.300781 14.484375 L 67.949219 15.402344 C 67.714844 15.261719 67.472656 15.1875 67.226562 15.1875 C 67.019531 15.1875 66.824219 15.253906 66.640625 15.382812 C 66.472656 15.515625 66.347656 15.695312 66.269531 15.929688 C 66.164062 16.28125 66.113281 16.667969 66.113281 17.082031 L 66.113281 20.128906 Z M 65.117188 20.128906 "/>
<path style="fill-rule:nonzero;fill:rgb(69.803922%,85.098039%,100%);fill-opacity:1;stroke-width:1;stroke-linecap:round;stroke-linejoin:round;stroke:rgb(0%,0%,0%);stroke-opacity:1;stroke-miterlimit:10;" d="M 282.640625 138.484375 C 287.621875 143.465625 287.621875 151.534375 282.640625 156.515625 C 277.659375 161.496875 269.590625 161.496875 264.609375 156.515625 C 259.628125 151.534375 259.628125 143.465625 264.609375 138.484375 C 269.590625 133.503125 277.659375 133.503125 282.640625 138.484375 " transform="matrix(1.25,0,0,1.25,-30,-92.5)"/>
<path style=" stroke:none;fill-rule:nonzero;fill:rgb(0%,0%,0%);fill-opacity:1;" d="M 306.765625 94.855469 L 309.304688 91.886719 L 307.859375 89.015625 L 308.953125 89.015625 L 309.441406 90.050781 C 309.621094 90.441406 309.785156 90.824219 309.929688 91.183594 L 311.628906 89.015625 L 312.839844 89.015625 L 310.378906 91.964844 L 311.863281 94.855469 L 310.75 94.855469 L 310.183594 93.664062 C 310.050781 93.421875 309.910156 93.109375 309.753906 92.726562 L 308.015625 94.855469 Z M 306.765625 94.855469 "/>
<path style=" stroke:none;fill-rule:nonzero;fill:rgb(0%,0%,0%);fill-opacity:1;" d="M 315.769531 96.691406 C 315.324219 97.199219 314.863281 97.453125 314.382812 97.453125 C 313.953125 97.453125 313.59375 97.296875 313.308594 96.984375 C 313.019531 96.664062 312.878906 96.199219 312.878906 95.597656 C 312.878906 95.050781 312.988281 94.554688 313.210938 94.09375 C 313.429688 93.625 313.710938 93.285156 314.050781 93.058594 C 314.402344 92.824219 314.746094 92.707031 315.085938 92.707031 C 315.644531 92.707031 316.066406 92.980469 316.355469 93.527344 L 316.882812 91.085938 L 317.644531 91.085938 L 316.335938 97.355469 L 315.632812 97.355469 Z M 313.640625 95.460938 C 313.640625 95.773438 313.671875 96.023438 313.738281 96.203125 C 313.800781 96.390625 313.90625 96.546875 314.050781 96.671875 C 314.207031 96.789062 314.386719 96.847656 314.597656 96.847656 C 314.949219 96.847656 315.265625 96.667969 315.554688 96.300781 C 315.929688 95.808594 316.121094 95.207031 316.121094 94.503906 C 316.121094 94.144531 316.023438 93.859375 315.828125 93.664062 C 315.644531 93.460938 315.410156 93.351562 315.125 93.351562 C 314.941406 93.351562 314.773438 93.402344 314.617188 93.488281 C 314.472656 93.566406 314.324219 93.703125 314.167969 93.898438 C 314.023438 94.09375 313.898438 94.347656 313.796875 94.660156 C 313.691406 94.964844 313.640625 95.226562 313.640625 95.460938 Z M 313.640625 95.460938 "/>
<path style="fill-rule:nonzero;fill:rgb(40%,74.901961%,100%);fill-opacity:1;stroke-width:1;stroke-linecap:round;stroke-linejoin:round;stroke:rgb(0%,0%,0%);stroke-opacity:1;stroke-miterlimit:10;" d="M 202.640625 78.234375 C 207.621875 83.215625 207.621875 91.284375 202.640625 96.265625 C 197.659375 101.246875 189.590625 101.246875 184.609375 96.265625 C 179.628125 91.284375 179.628125 83.215625 184.609375 78.234375 C 189.590625 73.253125 197.659375 73.253125 202.640625 78.234375 " transform="matrix(1.25,0,0,1.25,-30,-92.5)"/>
<path style=" stroke:none;fill-rule:nonzero;fill:rgb(0%,0%,0%);fill-opacity:1;" d="M 207.015625 17.335938 C 207.015625 16.195312 207.351562 15.246094 208.03125 14.503906 C 208.578125 13.894531 209.300781 13.585938 210.199219 13.585938 C 210.902344 13.585938 211.46875 13.8125 211.898438 14.25 C 212.328125 14.679688 212.542969 15.265625 212.542969 16.007812 C 212.542969 16.6875 212.40625 17.3125 212.132812 17.882812 C 211.859375 18.460938 211.472656 18.898438 210.980469 19.210938 C 210.484375 19.523438 209.957031 19.679688 209.398438 19.679688 C 208.941406 19.679688 208.523438 19.582031 208.148438 19.386719 C 207.78125 19.191406 207.503906 18.917969 207.308594 18.566406 C 207.113281 18.207031 207.015625 17.796875 207.015625 17.335938 Z M 208.011719 17.238281 C 208.011719 17.785156 208.140625 18.207031 208.402344 18.488281 C 208.675781 18.761719 209.011719 18.898438 209.417969 18.898438 C 209.625 18.898438 209.832031 18.859375 210.042969 18.78125 C 210.25 18.695312 210.445312 18.5625 210.628906 18.390625 C 210.808594 18.210938 210.960938 18.011719 211.078125 17.785156 C 211.207031 17.566406 211.3125 17.328125 211.390625 17.0625 C 211.507812 16.703125 211.566406 16.351562 211.566406 16.007812 C 211.566406 15.492188 211.429688 15.085938 211.15625 14.796875 C 210.894531 14.5 210.5625 14.347656 210.160156 14.347656 C 209.847656 14.347656 209.558594 14.425781 209.300781 14.582031 C 209.050781 14.730469 208.824219 14.945312 208.617188 15.226562 C 208.40625 15.515625 208.25 15.847656 208.148438 16.222656 C 208.054688 16.605469 208.011719 16.941406 208.011719 17.238281 Z M 208.011719 17.238281 "/>
<path style=" stroke:none;fill-rule:nonzero;fill:rgb(0%,0%,0%);fill-opacity:1;" d="M 214.835938 22.042969 L 215.832031 17.316406 C 215.402344 17.660156 214.796875 17.921875 214.015625 18.117188 L 214.171875 17.414062 C 214.546875 17.257812 214.921875 17.058594 215.304688 16.808594 C 215.679688 16.566406 215.957031 16.351562 216.144531 16.164062 C 216.261719 16.046875 216.367188 15.910156 216.476562 15.753906 L 216.925781 15.753906 L 215.617188 22.042969 Z M 214.835938 22.042969 "/>
<path style="fill:none;stroke-width:1;stroke-linecap:round;stroke-linejoin:round;stroke:rgb(0%,0%,0%);stroke-opacity:1;stroke-miterlimit:10;" d="M 125.075 140.434375 L 178.890625 98.684375 " transform="matrix(1.25,0,0,1.25,-30,-92.5)"/>
<path style="fill:none;stroke-width:1;stroke-linecap:butt;stroke-linejoin:miter;stroke:rgb(0%,0%,0%);stroke-opacity:1;stroke-miterlimit:10;" d="M 182.05 96.23125 L 178.890625 98.684375 M 177.96875 97.496875 L 182.05 96.23125 L 179.809375 99.86875 " transform="matrix(1.25,0,0,1.25,-30,-92.5)"/>
<path style="fill:none;stroke-width:1;stroke-linecap:round;stroke-linejoin:round;stroke:rgb(0%,0%,0%);stroke-opacity:1;stroke-miterlimit:10;" d="M 172.8375 136.5 L 186.371875 104.434375 " transform="matrix(1.25,0,0,1.25,-30,-92.5)"/>
<path style="fill:none;stroke-width:1;stroke-linecap:butt;stroke-linejoin:miter;stroke:rgb(0%,0%,0%);stroke-opacity:1;stroke-miterlimit:10;" d="M 187.925 100.75 L 186.371875 104.434375 M 184.9875 103.85 L 187.925 100.75 L 187.753125 105.01875 " transform="matrix(1.25,0,0,1.25,-30,-92.5)"/>
<path style="fill:none;stroke-width:1;stroke-linecap:round;stroke-linejoin:round;stroke:rgb(0%,0%,0%);stroke-opacity:1;stroke-miterlimit:10;" d="M 263.4375 139.828125 L 208.525 98.471875 " transform="matrix(1.25,0,0,1.25,-30,-92.5)"/>
<path style="fill:none;stroke-width:1;stroke-linecap:butt;stroke-linejoin:miter;stroke:rgb(0%,0%,0%);stroke-opacity:1;stroke-miterlimit:10;" d="M 205.328125 96.0625 L 208.525 98.471875 M 207.621875 99.66875 L 205.328125 96.0625 L 209.425 97.275 " transform="matrix(1.25,0,0,1.25,-30,-92.5)"/>
<path style=" stroke:none;fill-rule:nonzero;fill:rgb(0%,0%,0%);fill-opacity:1;" d="M 251.484375 91.242188 L 251.484375 93.46875 L 253.691406 93.46875 L 253.691406 91.242188 Z M 244.824219 91.242188 L 244.824219 93.46875 L 247.03125 93.46875 L 247.03125 91.242188 Z M 238.164062 91.242188 L 238.164062 93.46875 L 240.371094 93.46875 L 240.371094 91.242188 Z M 238.164062 91.242188 "/>
</g>
</svg>
